<svg width="137" height="26" viewBox="0 0 137 26" fill="none" xmlns="http://www.w3.org/2000/svg">
<path d="M1.43466 20V5.45455H6.8892C8.00663 5.45455 8.94413 5.66288 9.7017 6.07955C10.464 6.49621 11.0393 7.06913 11.4276 7.7983C11.8205 8.52273 12.017 9.34659 12.017 10.2699C12.017 11.2027 11.8205 12.0312 11.4276 12.7557C11.0346 13.4801 10.4545 14.0507 9.6875 14.4673C8.92045 14.8793 7.97585 15.0852 6.85369 15.0852H3.23864V12.919H6.49858C7.15199 12.919 7.68703 12.8054 8.10369 12.5781C8.52036 12.3509 8.82813 12.0384 9.02699 11.6406C9.23059 11.2429 9.33239 10.786 9.33239 10.2699C9.33239 9.75379 9.23059 9.29924 9.02699 8.90625C8.82813 8.51326 8.51799 8.20786 8.09659 7.99006C7.67992 7.76752 7.14252 7.65625 6.48438 7.65625H4.0696V20H1.43466ZM18.7944 20.2131C17.729 20.2131 16.8058 19.9787 16.0245 19.5099C15.2433 19.0412 14.6372 18.3854 14.2063 17.5426C13.7802 16.6998 13.5671 15.715 13.5671 14.5881C13.5671 13.4612 13.7802 12.474 14.2063 11.6264C14.6372 10.7789 15.2433 10.1207 16.0245 9.65199C16.8058 9.18324 17.729 8.94886 18.7944 8.94886C19.8597 8.94886 20.783 9.18324 21.5643 9.65199C22.3455 10.1207 22.9492 10.7789 23.3754 11.6264C23.8062 12.474 24.0217 13.4612 24.0217 14.5881C24.0217 15.715 23.8062 16.6998 23.3754 17.5426C22.9492 18.3854 22.3455 19.0412 21.5643 19.5099C20.783 19.9787 19.8597 20.2131 18.7944 20.2131ZM18.8086 18.1534C19.3862 18.1534 19.8692 17.9948 20.2575 17.6776C20.6457 17.3556 20.9345 16.9247 21.1239 16.3849C21.3181 15.8452 21.4151 15.2438 21.4151 14.581C21.4151 13.9134 21.3181 13.3097 21.1239 12.7699C20.9345 12.2254 20.6457 11.7921 20.2575 11.4702C19.8692 11.1482 19.3862 10.9872 18.8086 10.9872C18.2167 10.9872 17.7243 11.1482 17.3313 11.4702C16.9431 11.7921 16.6519 12.2254 16.4577 12.7699C16.2683 13.3097 16.1737 13.9134 16.1737 14.581C16.1737 15.2438 16.2683 15.8452 16.4577 16.3849C16.6519 16.9247 16.9431 17.3556 17.3313 17.6776C17.7243 17.9948 18.2167 18.1534 18.8086 18.1534ZM34.826 11.9744L32.4822 12.2301C32.416 11.9934 32.3 11.7708 32.1342 11.5625C31.9732 11.3542 31.7554 11.1861 31.4808 11.0582C31.2062 10.9304 30.87 10.8665 30.4723 10.8665C29.9373 10.8665 29.4875 10.9825 29.1229 11.2145C28.763 11.4465 28.5855 11.7472 28.5902 12.1165C28.5855 12.4337 28.7015 12.6918 28.9382 12.8906C29.1797 13.0895 29.5774 13.2528 30.1314 13.3807L31.9922 13.7784C33.0244 14.0009 33.7914 14.3537 34.2933 14.8366C34.8 15.3196 35.0556 15.9517 35.0604 16.733C35.0556 17.4195 34.8544 18.0256 34.4567 18.5511C34.0637 19.072 33.5168 19.4792 32.8161 19.7727C32.1153 20.0663 31.3104 20.2131 30.4013 20.2131C29.0661 20.2131 27.9912 19.9337 27.1768 19.375C26.3625 18.8116 25.8771 18.0279 25.7209 17.0241L28.228 16.7827C28.3416 17.2751 28.5831 17.6468 28.9524 17.8977C29.3217 18.1487 29.8023 18.2741 30.3942 18.2741C31.005 18.2741 31.495 18.1487 31.8643 17.8977C32.2384 17.6468 32.4254 17.3366 32.4254 16.9673C32.4254 16.6548 32.3047 16.3968 32.0632 16.1932C31.8265 15.9896 31.4571 15.8333 30.9553 15.7244L29.0945 15.3338C28.0481 15.116 27.2739 14.7491 26.772 14.233C26.2701 13.7121 26.0215 13.054 26.0263 12.2585C26.0215 11.5862 26.2038 11.0038 26.5732 10.5114C26.9472 10.0142 27.4657 9.63068 28.1286 9.3608C28.7962 9.08617 29.5656 8.94886 30.4368 8.94886C31.7152 8.94886 32.7214 9.22112 33.4553 9.76562C34.1939 10.3101 34.6508 11.0464 34.826 11.9744ZM42.6278 9.09091V11.0795H36.3565V9.09091H42.6278ZM37.9048 6.47727H40.4759V16.7188C40.4759 17.0644 40.5279 17.3295 40.6321 17.5142C40.741 17.6941 40.883 17.8172 41.0582 17.8835C41.2334 17.9498 41.4276 17.983 41.6406 17.983C41.8016 17.983 41.9484 17.9711 42.081 17.9474C42.2183 17.9238 42.3224 17.9025 42.3935 17.8835L42.8267 19.8935C42.6894 19.9408 42.4929 19.9929 42.2372 20.0497C41.9863 20.1065 41.6785 20.1397 41.3139 20.1491C40.67 20.1681 40.09 20.071 39.5739 19.858C39.0578 19.6402 38.6482 19.304 38.3452 18.8494C38.0469 18.3949 37.9001 17.8267 37.9048 17.1449V6.47727ZM47.9173 20.2202C47.226 20.2202 46.6033 20.0971 46.0494 19.8509C45.5001 19.5999 45.0645 19.2306 44.7425 18.7429C44.4253 18.2552 44.2667 17.6539 44.2667 16.9389C44.2667 16.3234 44.3803 15.8144 44.6076 15.4119C44.8349 15.0095 45.145 14.6875 45.538 14.446C45.931 14.2045 46.3737 14.0223 46.8661 13.8991C47.3633 13.7713 47.877 13.679 48.4073 13.6222C49.0465 13.5559 49.565 13.4967 49.9627 13.4446C50.3604 13.3878 50.6493 13.3026 50.8292 13.1889C51.0138 13.0705 51.1062 12.8883 51.1062 12.642V12.5994C51.1062 12.0644 50.9476 11.6501 50.6303 11.3565C50.3131 11.063 49.8562 10.9162 49.2596 10.9162C48.6299 10.9162 48.1303 11.0535 47.761 11.3281C47.3964 11.6027 47.1502 11.9271 47.0224 12.3011L44.6218 11.9602C44.8112 11.2973 45.1237 10.7434 45.5593 10.2983C45.9949 9.84848 46.5276 9.51231 47.1573 9.28977C47.7871 9.0625 48.4831 8.94886 49.2454 8.94886C49.771 8.94886 50.2942 9.01042 50.815 9.13352C51.3358 9.25663 51.8117 9.46023 52.2425 9.74432C52.6734 10.0237 53.0191 10.4048 53.2795 10.8878C53.5446 11.3707 53.6772 11.9744 53.6772 12.6989V20H51.2056V18.5014H51.1204C50.9641 18.8045 50.744 19.0885 50.4599 19.3537C50.1805 19.6141 49.8278 19.8248 49.4016 19.9858C48.9802 20.142 48.4854 20.2202 47.9173 20.2202ZM48.5849 18.331C49.101 18.331 49.5484 18.2292 49.9272 18.0256C50.306 17.8172 50.5972 17.5426 50.8008 17.2017C51.0091 16.8608 51.1133 16.4891 51.1133 16.0866V14.8011C51.0328 14.8674 50.8955 14.929 50.7013 14.9858C50.512 15.0426 50.2989 15.0923 50.0621 15.1349C49.8254 15.1776 49.591 15.2154 49.359 15.2486C49.127 15.2817 48.9258 15.3101 48.7553 15.3338C48.3718 15.3859 48.0285 15.4711 47.7255 15.5895C47.4225 15.7079 47.1834 15.8736 47.0082 16.0866C46.833 16.295 46.7454 16.5649 46.7454 16.8963C46.7454 17.3698 46.9182 17.7273 47.2638 17.9688C47.6095 18.2102 48.0498 18.331 48.5849 18.331ZM61.7099 9.09091V11.0795H55.4386V9.09091H61.7099ZM56.9869 6.47727H59.5579V16.7188C59.5579 17.0644 59.61 17.3295 59.7141 17.5142C59.823 17.6941 59.9651 17.8172 60.1403 17.8835C60.3155 17.9498 60.5096 17.983 60.7227 17.983C60.8836 17.983 61.0304 17.9711 61.163 17.9474C61.3003 17.9238 61.4045 17.9025 61.4755 17.8835L61.9087 19.8935C61.7714 19.9408 61.5749 19.9929 61.3192 20.0497C61.0683 20.1065 60.7605 20.1397 60.396 20.1491C59.752 20.1681 59.172 20.071 58.6559 19.858C58.1398 19.6402 57.7302 19.304 57.4272 18.8494C57.1289 18.3949 56.9821 17.8267 56.9869 17.1449V6.47727ZM70.8132 15.4119V9.09091H73.3842V20H70.8913V18.0611H70.7777C70.5315 18.6719 70.1267 19.1714 69.5632 19.5597C69.0045 19.9479 68.3156 20.142 67.4964 20.142C66.7815 20.142 66.1494 19.9834 65.6001 19.6662C65.0556 19.3442 64.6295 18.8778 64.3217 18.267C64.014 17.6515 63.8601 16.9081 63.8601 16.0369V9.09091H66.4311V15.6392C66.4311 16.3305 66.6205 16.8797 66.9993 17.2869C67.3781 17.6941 67.8752 17.8977 68.4908 17.8977C68.8696 17.8977 69.2365 17.8054 69.5916 17.6207C69.9467 17.4361 70.2379 17.1615 70.4652 16.7969C70.6972 16.4276 70.8132 15.9659 70.8132 15.4119ZM84.6502 11.9744L82.3065 12.2301C82.2402 11.9934 82.1242 11.7708 81.9585 11.5625C81.7975 11.3542 81.5797 11.1861 81.305 11.0582C81.0304 10.9304 80.6942 10.8665 80.2965 10.8665C79.7615 10.8665 79.3117 10.9825 78.9471 11.2145C78.5872 11.4465 78.4097 11.7472 78.4144 12.1165C78.4097 12.4337 78.5257 12.6918 78.7624 12.8906C79.0039 13.0895 79.4016 13.2528 79.9556 13.3807L81.8164 13.7784C82.8486 14.0009 83.6156 14.3537 84.1175 14.8366C84.6242 15.3196 84.8799 15.9517 84.8846 16.733C84.8799 17.4195 84.6786 18.0256 84.2809 18.5511C83.8879 19.072 83.341 19.4792 82.6403 19.7727C81.9395 20.0663 81.1346 20.2131 80.2255 20.2131C78.8903 20.2131 77.8155 19.9337 77.0011 19.375C76.1867 18.8116 75.7013 18.0279 75.5451 17.0241L78.0522 16.7827C78.1658 17.2751 78.4073 17.6468 78.7766 17.8977C79.146 18.1487 79.6265 18.2741 80.2184 18.2741C80.8292 18.2741 81.3192 18.1487 81.6886 17.8977C82.0626 17.6468 82.2496 17.3366 82.2496 16.9673C82.2496 16.6548 82.1289 16.3968 81.8874 16.1932C81.6507 15.9896 81.2814 15.8333 80.7795 15.7244L78.9187 15.3338C77.8723 15.116 77.0981 14.7491 76.5962 14.233C76.0943 13.7121 75.8458 13.054 75.8505 12.2585C75.8458 11.5862 76.0281 11.0038 76.3974 10.5114C76.7714 10.0142 77.2899 9.63068 77.9528 9.3608C78.6204 9.08617 79.3898 8.94886 80.261 8.94886C81.5394 8.94886 82.5456 9.22112 83.2795 9.76562C84.0181 10.3101 84.475 11.0464 84.6502 11.9744Z" fill="#181921"/>
<rect x="90" y="0.5" width="47" height="25" rx="8" fill="url(#paint0_linear_37_863)" fill-opacity="0.35"/>
<path d="M99.1186 18.5V8.31818H102.847C103.57 8.31818 104.168 8.4375 104.642 8.67614C105.116 8.91146 105.471 9.2313 105.706 9.63565C105.941 10.0367 106.059 10.4891 106.059 10.9929C106.059 11.4171 105.981 11.7751 105.825 12.0668C105.67 12.3551 105.461 12.5871 105.199 12.7628C104.94 12.9351 104.655 13.0611 104.344 13.1406V13.2401C104.682 13.2566 105.012 13.366 105.333 13.5682C105.658 13.767 105.926 14.0504 106.138 14.4183C106.351 14.7862 106.457 15.2337 106.457 15.7607C106.457 16.281 106.334 16.7483 106.089 17.1626C105.847 17.5736 105.472 17.9001 104.965 18.142C104.458 18.3807 103.81 18.5 103.021 18.5H99.1186ZM100.655 17.1825H102.872C103.608 17.1825 104.135 17.04 104.453 16.755C104.771 16.4699 104.93 16.1136 104.93 15.6861C104.93 15.3646 104.849 15.0696 104.687 14.8011C104.524 14.5327 104.292 14.3189 103.991 14.1598C103.692 14.0007 103.338 13.9212 102.927 13.9212H100.655V17.1825ZM100.655 12.723H102.713C103.058 12.723 103.368 12.6567 103.643 12.5241C103.921 12.3916 104.142 12.206 104.304 11.9673C104.47 11.7254 104.553 11.4403 104.553 11.1122C104.553 10.6913 104.405 10.3383 104.11 10.0533C103.815 9.76823 103.363 9.62571 102.753 9.62571H100.655V12.723ZM111.451 18.6541C110.698 18.6541 110.05 18.4934 109.507 18.1719C108.967 17.8471 108.549 17.3913 108.254 16.8047C107.962 16.2147 107.816 15.5237 107.816 14.7315C107.816 13.9493 107.962 13.2599 108.254 12.6634C108.549 12.0668 108.96 11.6011 109.487 11.2663C110.017 10.9316 110.637 10.7642 111.346 10.7642C111.777 10.7642 112.195 10.8355 112.599 10.978C113.003 11.1205 113.366 11.3442 113.688 11.6491C114.009 11.9541 114.263 12.3501 114.449 12.8374C114.634 13.3213 114.727 13.9096 114.727 14.6023V15.1293H108.657V14.0156H113.27C113.27 13.6245 113.191 13.2782 113.032 12.9766C112.873 12.6716 112.649 12.4313 112.36 12.2557C112.075 12.08 111.741 11.9922 111.356 11.9922C110.939 11.9922 110.574 12.0949 110.262 12.3004C109.954 12.5026 109.716 12.7678 109.547 13.0959C109.381 13.4207 109.298 13.7737 109.298 14.1548V15.0249C109.298 15.5353 109.387 15.9695 109.566 16.3274C109.749 16.6854 110.002 16.9588 110.327 17.1477C110.652 17.3333 111.031 17.4261 111.466 17.4261C111.747 17.4261 112.004 17.3864 112.236 17.3068C112.468 17.224 112.669 17.1013 112.838 16.9389C113.007 16.7765 113.136 16.576 113.225 16.3374L114.632 16.5909C114.52 17.0052 114.318 17.3681 114.026 17.6797C113.738 17.9879 113.375 18.2282 112.937 18.4006C112.503 18.5696 112.007 18.6541 111.451 18.6541ZM119.941 10.8636V12.0568H115.77V10.8636H119.941ZM116.888 9.03409H118.375V16.2578C118.375 16.5462 118.418 16.7633 118.504 16.9091C118.59 17.0516 118.701 17.1494 118.837 17.2024C118.976 17.2521 119.127 17.277 119.29 17.277C119.409 17.277 119.513 17.2687 119.603 17.2521C119.692 17.2356 119.762 17.2223 119.812 17.2124L120.08 18.4403C119.994 18.4735 119.871 18.5066 119.712 18.5398C119.553 18.5762 119.354 18.5961 119.116 18.5994C118.724 18.6061 118.36 18.5365 118.022 18.3906C117.684 18.2448 117.41 18.0194 117.202 17.7145C116.993 17.4096 116.888 17.0268 116.888 16.5661V9.03409ZM123.808 18.669C123.324 18.669 122.886 18.5795 122.495 18.4006C122.104 18.2183 121.794 17.9548 121.565 17.6101C121.34 17.2654 121.227 16.8428 121.227 16.3423C121.227 15.9115 121.31 15.5568 121.476 15.2784C121.642 15 121.865 14.7796 122.147 14.6172C122.429 14.4548 122.744 14.3321 123.092 14.2493C123.44 14.1664 123.794 14.1035 124.156 14.0604C124.613 14.0073 124.984 13.9643 125.269 13.9311C125.554 13.8946 125.761 13.8366 125.891 13.7571C126.02 13.6776 126.085 13.5483 126.085 13.3693V13.3345C126.085 12.9003 125.962 12.5639 125.717 12.3253C125.475 12.0866 125.113 11.9673 124.633 11.9673C124.132 11.9673 123.738 12.0784 123.45 12.3004C123.165 12.5192 122.967 12.7628 122.858 13.0312L121.461 12.7131C121.627 12.2491 121.869 11.8745 122.187 11.5895C122.508 11.3011 122.878 11.0923 123.295 10.9631C123.713 10.8305 124.152 10.7642 124.613 10.7642C124.918 10.7642 125.241 10.8007 125.582 10.8736C125.927 10.9432 126.249 11.0724 126.547 11.2614C126.848 11.4503 127.095 11.7204 127.288 12.0717C127.48 12.4197 127.576 12.8722 127.576 13.429V18.5H126.124V17.456H126.065C125.969 17.6482 125.824 17.8371 125.632 18.0227C125.44 18.2083 125.193 18.3625 124.891 18.4851C124.59 18.6077 124.228 18.669 123.808 18.669ZM124.131 17.4759C124.542 17.4759 124.893 17.3946 125.185 17.2322C125.48 17.0698 125.703 16.8577 125.856 16.5959C126.012 16.3307 126.089 16.0473 126.089 15.7457V14.7614C126.036 14.8144 125.934 14.8641 125.781 14.9105C125.632 14.9536 125.461 14.9917 125.269 15.0249C125.077 15.0547 124.89 15.0829 124.707 15.1094C124.525 15.1326 124.373 15.1525 124.25 15.169C123.962 15.2055 123.698 15.2668 123.46 15.353C123.224 15.4392 123.035 15.5634 122.893 15.7259C122.754 15.8849 122.684 16.0971 122.684 16.3622C122.684 16.7301 122.82 17.0085 123.092 17.1974C123.363 17.383 123.71 17.4759 124.131 17.4759Z" fill="#181921"/>
<defs>
<linearGradient id="paint0_linear_37_863" x1="90" y1="13.0001" x2="137" y2="13.0001" gradientUnits="userSpaceOnUse">
<stop stop-color="#BDFF00"/>
<stop offset="1" stop-color="#29E496"/>
</linearGradient>
</defs>
</svg>
