<svg xmlns="http://www.w3.org/2000/svg" width="32" height="32" viewBox="0 0 32 32" fill="none">
  <path d="M32 12.6667C32 16.2343 30.248 19.3924 27.5578 21.329L16 30L16 23.3333L24.5133 16.9488C25.8202 15.9768 26.6667 14.4204 26.6667 12.6667C26.6667 11.194 26.0697 9.86064 25.1045 8.89548C24.1394 7.93032 22.806 7.33333 21.3333 7.33333L10.6667 7.33333C7.72129 7.33333 5.33333 9.72129 5.33333 12.6667C5.33333 14.1394 5.93032 15.4727 6.89548 16.4378C7.86064 17.403 9.19398 18 10.6667 18L16 18L16 23.3333L10.6667 23.3333C4.77591 23.3333 0 18.5574 0 12.6667C0 6.77534 4.77591 2 10.6667 2L21.3333 2C27.2247 2 32 6.77534 32 12.6667Z" fill="#34D399"/>
  <path d="M21.3333 10L10.6667 10C9.19398 10 8 11.194 8 12.6667C8 14.1394 9.19398 15.3333 10.6667 15.3333L18.6672 15.3333H18.6667V18L22.9276 14.804C23.5785 14.3177 24 13.5412 24 12.6667C24 11.194 22.806 10 21.3333 10Z" fill="#34D399"/>
</svg>