<svg xmlns="http://www.w3.org/2000/svg" width="28" height="28" viewBox="0 0 28 28" fill="none">
  <g clip-path="url(#clip0_217_5823)">
    <path d="M5.6875 2.62484H22.3125C23.3564 2.626 24.3573 3.04121 25.0955 3.77939C25.8336 4.51756 26.2488 5.5184 26.25 6.56234V17.0623C26.2488 18.1063 25.8336 19.1071 25.0955 19.8453C24.3573 20.5835 23.3564 20.9987 22.3125 20.9998H21V24.4998C21 24.6662 20.9527 24.8291 20.8634 24.9695C20.7741 25.1099 20.6467 25.222 20.496 25.2925C20.3453 25.3631 20.1777 25.3892 20.0127 25.3678C19.8477 25.3465 19.6922 25.2785 19.5645 25.172L14.5611 20.9998H5.6875C4.64357 20.9987 3.64272 20.5835 2.90454 19.8453C2.16637 19.1071 1.75116 18.1063 1.75 17.0623V6.56234C1.75116 5.5184 2.16637 4.51756 2.90454 3.77939C3.64272 3.04121 4.64357 2.626 5.6875 2.62484ZM19.25 13.5623C19.5961 13.5623 19.9345 13.4597 20.2222 13.2674C20.51 13.0751 20.7343 12.8018 20.8668 12.482C20.9992 12.1623 21.0339 11.8104 20.9664 11.4709C20.8988 11.1315 20.7322 10.8196 20.4874 10.5749C20.2427 10.3302 19.9309 10.1635 19.5914 10.096C19.2519 10.0284 18.9001 10.0631 18.5803 10.1955C18.2605 10.328 17.9872 10.5523 17.7949 10.8401C17.6026 11.1279 17.5 11.4662 17.5 11.8123C17.5 12.2765 17.6844 12.7216 18.0126 13.0498C18.3408 13.378 18.7859 13.5623 19.25 13.5623ZM14 13.5623C14.3461 13.5623 14.6845 13.4597 14.9722 13.2674C15.26 13.0751 15.4843 12.8018 15.6168 12.482C15.7492 12.1623 15.7839 11.8104 15.7164 11.4709C15.6488 11.1315 15.4822 10.8196 15.2374 10.5749C14.9927 10.3302 14.6809 10.1635 14.3414 10.096C14.0019 10.0284 13.6501 10.0631 13.3303 10.1955C13.0105 10.328 12.7372 10.5523 12.5449 10.8401C12.3526 11.1279 12.25 11.4662 12.25 11.8123C12.25 12.2765 12.4344 12.7216 12.7626 13.0498C13.0908 13.378 13.5359 13.5623 14 13.5623ZM8.75 13.5623C9.09612 13.5623 9.43446 13.4597 9.72225 13.2674C10.01 13.0751 10.2343 12.8018 10.3668 12.482C10.4992 12.1623 10.5339 11.8104 10.4664 11.4709C10.3988 11.1315 10.2322 10.8196 9.98743 10.5749C9.74269 10.3302 9.43087 10.1635 9.09141 10.096C8.75194 10.0284 8.40007 10.0631 8.0803 10.1955C7.76053 10.328 7.48722 10.5523 7.29493 10.8401C7.10263 11.1279 7 11.4662 7 11.8123C7 12.2765 7.18437 12.7216 7.51256 13.0498C7.84075 13.378 8.28587 13.5623 8.75 13.5623Z" fill="url(#paint0_linear_217_5823)"/>
    <path d="M5.6875 -114.743H22.3125C23.3564 -114.742 24.3573 -114.327 25.0955 -113.589C25.8336 -112.85 26.2488 -111.85 26.25 -110.806V-100.306C26.2488 -99.2617 25.8336 -98.2609 25.0955 -97.5227C24.3573 -96.7845 23.3564 -96.3693 22.3125 -96.3682H21V-92.8682C21 -92.7018 20.9527 -92.5388 20.8634 -92.3984C20.7741 -92.2581 20.6467 -92.146 20.496 -92.0755C20.3453 -92.0049 20.1777 -91.9788 20.0127 -92.0002C19.8477 -92.0215 19.6922 -92.0895 19.5645 -92.196L14.5611 -96.3682H5.6875C4.64357 -96.3693 3.64272 -96.7845 2.90454 -97.5227C2.16637 -98.2609 1.75116 -99.2617 1.75 -100.306V-110.806C1.75116 -111.85 2.16637 -112.85 2.90454 -113.589C3.64272 -114.327 4.64357 -114.742 5.6875 -114.743ZM19.25 -103.806C19.5961 -103.806 19.9345 -103.908 20.2222 -104.101C20.51 -104.293 20.7343 -104.566 20.8668 -104.886C20.9992 -105.206 21.0339 -105.558 20.9664 -105.897C20.8989 -106.237 20.7322 -106.548 20.4874 -106.793C20.2427 -107.038 19.9309 -107.204 19.5914 -107.272C19.2519 -107.34 18.9001 -107.305 18.5803 -107.172C18.2605 -107.04 17.9872 -106.816 17.7949 -106.528C17.6026 -106.24 17.5 -105.902 17.5 -105.556C17.5 -105.092 17.6844 -104.646 18.0126 -104.318C18.3408 -103.99 18.7859 -103.806 19.25 -103.806ZM14 -103.806C14.3461 -103.806 14.6845 -103.908 14.9722 -104.101C15.26 -104.293 15.4843 -104.566 15.6168 -104.886C15.7492 -105.206 15.7839 -105.558 15.7164 -105.897C15.6489 -106.237 15.4822 -106.548 15.2374 -106.793C14.9927 -107.038 14.6809 -107.204 14.3414 -107.272C14.0019 -107.34 13.6501 -107.305 13.3303 -107.172C13.0105 -107.04 12.7372 -106.816 12.5449 -106.528C12.3526 -106.24 12.25 -105.902 12.25 -105.556C12.25 -105.092 12.4344 -104.646 12.7626 -104.318C13.0908 -103.99 13.5359 -103.806 14 -103.806ZM8.75 -103.806C9.09612 -103.806 9.43446 -103.908 9.72225 -104.101C10.01 -104.293 10.2343 -104.566 10.3668 -104.886C10.4992 -105.206 10.5339 -105.558 10.4664 -105.897C10.3989 -106.237 10.2322 -106.548 9.98744 -106.793C9.74269 -107.038 9.43087 -107.204 9.09141 -107.272C8.75194 -107.34 8.40007 -107.305 8.0803 -107.172C7.76053 -107.04 7.48722 -106.816 7.29493 -106.528C7.10263 -106.24 7 -105.902 7 -105.556C7 -105.092 7.18438 -104.646 7.51256 -104.318C7.84075 -103.99 8.28587 -103.806 8.75 -103.806Z" fill="url(#paint1_linear_217_5823)"/>
  </g>
  <defs>
    <linearGradient id="paint0_linear_217_5823" x1="14" y1="2.62484" x2="14" y2="25.3751" gradientUnits="userSpaceOnUse">
      <stop stop-color="#34D399"/>
      <stop offset="0.9999" stop-color="#11BA82"/>
      <stop offset="1" stop-color="#10B981"/>
    </linearGradient>
    <linearGradient id="paint1_linear_217_5823" x1="14" y1="2.62484" x2="14" y2="25.3751" gradientUnits="userSpaceOnUse">
      <stop stop-color="#34D399"/>
      <stop offset="0.9999" stop-color="#11BA82"/>
      <stop offset="1" stop-color="#10B981"/>
    </linearGradient>
    <clipPath id="clip0_217_5823">
      <rect width="28" height="28" fill="white"/>
    </clipPath>
  </defs>
</svg>