<svg xmlns="http://www.w3.org/2000/svg" width="28" height="28" viewBox="0 0 28 28" fill="none">
  <path d="M5.6875 2.625H22.3125C23.3564 2.62616 24.3573 3.04137 25.0955 3.77955C25.8336 4.51772 26.2488 5.51856 26.25 6.5625V17.0625C26.2488 18.1064 25.8336 19.1073 25.0955 19.8455C24.3573 20.5836 23.3564 20.9988 22.3125 21H21V24.5C21 24.6664 20.9527 24.8293 20.8634 24.9697C20.7741 25.1101 20.6467 25.2221 20.496 25.2927C20.3453 25.3632 20.1777 25.3893 20.0127 25.368C19.8477 25.3466 19.6922 25.2787 19.5645 25.1721L14.5611 21H5.6875C4.64357 20.9988 3.64272 20.5836 2.90454 19.8455C2.16637 19.1073 1.75116 18.1064 1.75 17.0625V6.5625C1.75116 5.51856 2.16637 4.51772 2.90454 3.77955C3.64272 3.04137 4.64357 2.62616 5.6875 2.625ZM19.25 13.5625C19.5961 13.5625 19.9345 13.4599 20.2222 13.2676C20.51 13.0753 20.7343 12.802 20.8668 12.4822C20.9992 12.1624 21.0339 11.8106 20.9664 11.4711C20.8989 11.1316 20.7322 10.8198 20.4874 10.5751C20.2427 10.3303 19.9309 10.1636 19.5914 10.0961C19.2519 10.0286 18.9001 10.0633 18.5803 10.1957C18.2605 10.3282 17.9872 10.5525 17.7949 10.8403C17.6026 11.128 17.5 11.4664 17.5 11.8125C17.5 12.2766 17.6844 12.7217 18.0126 13.0499C18.3408 13.3781 18.7859 13.5625 19.25 13.5625ZM14 13.5625C14.3461 13.5625 14.6845 13.4599 14.9722 13.2676C15.26 13.0753 15.4843 12.802 15.6168 12.4822C15.7492 12.1624 15.7839 11.8106 15.7164 11.4711C15.6489 11.1316 15.4822 10.8198 15.2374 10.5751C14.9927 10.3303 14.6809 10.1636 14.3414 10.0961C14.0019 10.0286 13.6501 10.0633 13.3303 10.1957C13.0105 10.3282 12.7372 10.5525 12.5449 10.8403C12.3526 11.128 12.25 11.4664 12.25 11.8125C12.25 12.2766 12.4344 12.7217 12.7626 13.0499C13.0908 13.3781 13.5359 13.5625 14 13.5625ZM8.75 13.5625C9.09612 13.5625 9.43446 13.4599 9.72225 13.2676C10.01 13.0753 10.2343 12.802 10.3668 12.4822C10.4992 12.1624 10.5339 11.8106 10.4664 11.4711C10.3989 11.1316 10.2322 10.8198 9.98744 10.5751C9.74269 10.3303 9.43087 10.1636 9.09141 10.0961C8.75194 10.0286 8.40007 10.0633 8.0803 10.1957C7.76053 10.3282 7.48722 10.5525 7.29493 10.8403C7.10264 11.128 7 11.4664 7 11.8125C7 12.2766 7.18438 12.7217 7.51256 13.0499C7.84075 13.3781 8.28587 13.5625 8.75 13.5625Z" fill="url(#paint0_linear_50_72)"/>
  <defs>
    <linearGradient id="paint0_linear_50_72" x1="14" y1="2.625" x2="14" y2="25.3752" gradientUnits="userSpaceOnUse">
      <stop stop-color="#34D399"/>
      <stop offset="0.9999" stop-color="#11BA82"/>
      <stop offset="1" stop-color="#10B981"/>
    </linearGradient>
  </defs>
</svg>