<svg xmlns="http://www.w3.org/2000/svg" width="24" height="24" viewBox="0 0 24 24" fill="none">
  <path d="M4 12C4 12.8813 4.71875 13.6 5.6 13.6C6.48125 13.6 7.2 12.8813 7.2 12C7.2 11.1188 6.48125 10.4 5.6 10.4C4.71875 10.4 4 11.1188 4 12ZM10.4 12C10.4 12.8813 11.1188 13.6 12 13.6C12.8812 13.6 13.6 12.8813 13.6 12C13.6 11.1188 12.8812 10.4 12 10.4C11.1188 10.4 10.4 11.1188 10.4 12ZM16.8 12C16.8 12.8813 17.5188 13.6 18.4 13.6C19.2812 13.6 20 12.8813 20 12C20 11.1188 19.2812 10.4 18.4 10.4C17.5188 10.4 16.8 11.1188 16.8 12Z" fill="currentColor"/>
</svg>