<svg xmlns="http://www.w3.org/2000/svg" width="24" height="24" viewBox="0 0 24 24" fill="none">
  <path d="M21.4347 10.4565C20.8208 9.65046 19.7896 9.12961 18.8076 9.12961H15.9928L17.6693 5.56515C18.171 4.49855 17.7457 3.27353 16.6111 2.51691C15.5453 1.80618 14.3515 1.83062 13.708 2.57634L7.80035 9.42146C7.4696 8.99644 6.95757 8.72285 6.38342 8.72285H3.80456C2.80954 8.72285 2 9.54353 2 10.5523V20.1683C2 21.177 2.80954 21.9977 3.80456 21.9977H6.38342C6.89097 21.9977 7.34993 21.7839 7.67815 21.4407C8.47429 21.9528 9.69366 22 10.7071 22C10.8247 22 10.9398 21.9994 11.0508 21.9987C11.1482 21.9982 11.2418 21.9977 11.3308 21.9977H17.2303C18.7042 21.9977 19.8099 20.8588 20.3435 18.7908L21.9209 12.6771C22.1175 11.915 21.9448 11.1264 21.4347 10.4565ZM6.86018 20.1683C6.86018 20.4348 6.64633 20.6516 6.38342 20.6516H3.80456C3.54165 20.6516 3.32779 20.4348 3.32779 20.1683V10.5523C3.32779 10.2857 3.54165 10.0689 3.80456 10.0689H6.38342C6.64633 10.0689 6.86018 10.2857 6.86018 10.5523V20.1683ZM20.6363 12.3365L19.0589 18.4502C18.7998 19.4545 18.2722 20.6516 17.2303 20.6516H11.3308C11.2395 20.6516 11.1434 20.6522 11.0436 20.6527C10.2332 20.657 8.72524 20.6655 8.28736 20.224C8.23574 20.172 8.18794 20.1036 8.18794 19.9569V11.0166L14.7073 3.4627C14.8867 3.25481 15.4244 3.33667 15.8815 3.64147C16.0367 3.74504 16.795 4.29655 16.4708 4.98579L14.3415 9.51295C14.2933 9.61555 14.2715 9.72885 14.2781 9.84229C14.2847 9.95574 14.3196 10.0656 14.3794 10.1618C14.4392 10.2579 14.5221 10.3371 14.6202 10.3919C14.7184 10.4468 14.8287 10.4756 14.9408 10.4757H18.8076C19.3843 10.4757 20.0177 10.7985 20.3836 11.2791C20.5628 11.5142 20.7519 11.8884 20.6363 12.3365Z" fill="currentColor"/>
</svg>