<svg xmlns="http://www.w3.org/2000/svg" width="14" height="15" viewBox="0 0 14 15" fill="none">
  <path d="M14 7.5C14 11.3658 10.8658 14.5 7 14.5C3.13425 14.5 0 11.3658 0 7.5C0 3.63425 3.13425 0.5 7 0.5C10.8658 0.5 14 3.63425 14 7.5Z" fill="#FF4444"/>
  <path d="M9.81939 5.1505L9.34958 4.68069C9.22 4.55077 9.00934 4.55077 8.87976 4.68069L7.00016 6.56029L5.12056 4.68069C4.99098 4.55077 4.78066 4.55077 4.65075 4.68069L4.18093 5.1505C4.05102 5.28009 4.05102 5.49041 4.18093 5.62032L6.06053 7.49992L4.18093 9.37952C4.05102 9.5091 4.05102 9.71942 4.18093 9.84933L4.65075 10.3191C4.78033 10.4491 4.99065 10.4491 5.12056 10.3191L7.00016 8.43955L8.87976 10.3191C9.00934 10.4491 9.21966 10.4491 9.34958 10.3191L9.81939 9.84933C9.94931 9.71975 9.94931 9.5091 9.81939 9.37952L7.9398 7.49992L9.81939 5.62032C9.94931 5.49074 9.94931 5.28042 9.81939 5.1505Z" fill="white"/>
</svg>