<svg xmlns="http://www.w3.org/2000/svg" width="24" height="24" viewBox="0 0 24 24" fill="none">
  <g clip-path="url(#clip0_217_6008)">
    <path d="M12 0C8.8174 0 5.76515 1.26428 3.51472 3.51472C1.26428 5.76515 0 8.8174 0 12C0 15.1826 1.26428 18.2348 3.51472 20.4853C5.76515 22.7357 8.8174 24 12 24C15.1826 24 18.2348 22.7357 20.4853 20.4853C22.7357 18.2348 24 15.1826 24 12C24 8.8174 22.7357 5.76515 20.4853 3.51472C18.2348 1.26428 15.1826 0 12 0Z" fill="#039BE5"/>
    <path d="M13.3809 15.2144H16.4827L16.9697 12.0718H13.3803V10.3542C13.3803 9.04864 13.808 7.89099 15.0324 7.89099H17V5.14848C16.6543 5.10192 15.9232 5 14.5416 5C11.6568 5 9.96556 6.51942 9.96556 9.98106V12.0718H7V15.2144H9.96556V23.8521C10.5529 23.9402 11.1477 24 11.7584 24C12.3104 24 12.8491 23.9497 13.3809 23.8779V15.2144Z" fill="white"/>
  </g>
  <defs>
    <clipPath id="clip0_217_6008">
      <rect width="24" height="24" fill="white"/>
    </clipPath>
  </defs>
</svg>