<svg xmlns="http://www.w3.org/2000/svg" width="24" height="24" viewBox="0 0 24 24" fill="none">
  <g clip-path="url(#clip0_217_6007)">
    <path d="M12 0C8.8174 0 5.76516 1.26428 3.51472 3.51472C1.26428 5.76516 0 8.8174 0 12C0 15.1826 1.26428 18.2348 3.51472 20.4853C5.76516 22.7357 8.8174 24 12 24C15.1826 24 18.2348 22.7357 20.4853 20.4853C22.7357 18.2348 24 15.1826 24 12C24 8.8174 22.7357 5.76516 20.4853 3.51472C18.2348 1.26428 15.1826 0 12 0Z" fill="#03A9F4"/>
    <path d="M19 8.22737C18.4855 8.45374 17.8339 8.66621 17.25 8.73684C17.8438 8.38716 18.7859 7.65884 19 7C18.4452 7.32363 17.4419 7.66926 16.7874 7.79432C16.2648 7.24432 15.5192 7 14.6932 7C13.1066 7 12 8.33447 12 9.89474V11.0526C9.66667 11.0526 7.39167 9.28858 5.97592 7.57895C5.72683 7.99637 5.58683 8.485 5.58683 9.00142C5.58683 10.0545 6.56158 11.1233 7.33333 11.6316C6.86258 11.6171 5.97125 11.2605 5.58333 11.0526C5.58333 11.0619 5.58333 11.0735 5.58333 11.0856C5.58333 12.456 6.55225 13.3864 7.86533 13.6457C7.62558 13.7112 7.33333 13.9474 6.20867 13.9474C6.57383 15.0676 8.40958 15.6599 9.66667 15.6842C8.68317 16.4409 6.92967 16.8421 5.58333 16.8421C5.35058 16.8421 5.22458 16.8548 5 16.8288C6.2705 17.6277 8.045 18 9.66667 18C14.9499 18 17.8333 13.9948 17.8333 10.2595C17.8333 10.1367 17.8292 9.72568 17.8228 9.60526C18.3875 9.21042 18.6162 8.79705 19 8.22737Z" fill="white"/>
  </g>
  <defs>
    <clipPath id="clip0_217_6007">
      <rect width="24" height="24" fill="white"/>
    </clipPath>
  </defs>
</svg>